<svg id="Layer_1" data-name="Layer 1" xmlns="http://www.w3.org/2000/svg" xmlns:xlink="http://www.w3.org/1999/xlink" viewBox="0 0 1600 900"><defs><style>.cls-1,.cls-11{fill:none;}.cls-2{fill:#fff;}.cls-3{font-size:110.24px;font-family:TitilliumWeb-Bold, Titillium Web;font-weight:700;}.cls-12,.cls-3{fill:#d7141a;}.cls-4{letter-spacing:-0.02em;}.cls-5{letter-spacing:-0.01em;}.cls-6{letter-spacing:-0.01em;}.cls-7{font-size:68.9px;}.cls-13,.cls-7{fill:#11457e;}.cls-8{letter-spacing:0.02em;}.cls-9{font-size:55.12px;}.cls-10{clip-path:url(#clip-path);}.cls-11{stroke:#000;stroke-miterlimit:10;}</style><clipPath id="clip-path"><circle class="cls-1" cx="370.05" cy="455" r="185.05"/></clipPath></defs><title>cover_2</title><rect class="cls-2" y="-25" width="1637" height="978"/><text class="cls-3" transform="translate(621.94 443.58)"><tspan class="cls-4">K</tspan><tspan x="63.5" y="0">omunální </tspan><tspan class="cls-5" x="536.32" y="0">v</tspan><tspan x="590.44" y="0">ol</tspan><tspan class="cls-6" x="678.86" y="0">b</tspan><tspan x="737.94" y="0">y</tspan><tspan class="cls-7"><tspan x="0" y="91.87">5. a 6. ř</tspan><tspan class="cls-8" x="218.75" y="91.87">í</tspan><tspan x="238.18" y="91.87">jna</tspan><tspan class="cls-9" x="329.34" y="91.87"> </tspan></tspan></text><g class="cls-10"><line class="cls-11" x1="337.34" y1="703.48" x2="402.77" y2="206.52"/><line class="cls-11" x1="402.77" y1="703.48" x2="337.34" y2="206.52"/><polygon class="cls-12" points="337.34 206.52 370.05 455 402.76 206.52 337.34 206.52"/><polygon class="cls-2" points="274.14 223.45 370.05 455 337.34 206.52 274.14 223.45"/><polygon class="cls-13" points="217.48 256.16 370.05 455 274.14 223.45 217.48 256.16"/><polygon class="cls-12" points="171.22 302.43 370.05 455 217.48 256.16 171.22 302.43"/><polygon class="cls-2" points="138.5 359.09 370.05 455 171.22 302.43 138.5 359.09"/><polygon class="cls-13" points="121.57 422.29 370.05 455 138.5 359.09 121.57 422.29"/><polygon class="cls-12" points="121.57 487.71 370.05 455 121.57 422.29 121.57 487.71"/><polygon class="cls-2" points="138.5 550.91 370.05 455 121.57 487.71 138.5 550.91"/><polygon class="cls-13" points="171.22 607.57 370.05 455 138.5 550.91 171.22 607.57"/><polygon class="cls-12" points="217.48 653.84 370.05 455 171.22 607.57 217.48 653.84"/><polygon class="cls-2" points="274.14 686.55 370.05 455 217.48 653.84 274.14 686.55"/><polygon class="cls-13" points="337.34 703.48 370.05 455 274.14 686.55 337.34 703.48"/><polygon class="cls-12" points="402.76 703.48 370.05 455 337.34 703.48 402.76 703.48"/><polygon class="cls-2" points="465.96 686.55 370.05 455 402.76 703.48 465.96 686.55"/><polygon class="cls-13" points="522.63 653.84 370.05 455 465.96 686.55 522.63 653.84"/><polygon class="cls-12" points="568.89 607.57 370.05 455 522.63 653.84 568.89 607.57"/><polygon class="cls-2" points="601.6 550.91 370.05 455 568.89 607.57 601.6 550.91"/><polygon class="cls-13" points="618.54 487.71 370.05 455 601.6 550.91 618.54 487.71"/><polygon class="cls-12" points="618.54 422.29 370.05 455 618.54 487.71 618.54 422.29"/><polygon class="cls-2" points="601.6 359.09 370.05 455 618.54 422.29 601.6 359.09"/><polygon class="cls-13" points="568.89 302.43 370.05 455 601.6 359.09 568.89 302.43"/><polygon class="cls-12" points="522.63 256.16 370.05 455 568.89 302.43 522.63 256.16"/><polygon class="cls-2" points="465.96 223.45 370.05 455 522.63 256.16 465.96 223.45"/><polygon class="cls-13" points="402.76 206.52 370.05 455 465.96 223.45 402.76 206.52"/><circle class="cls-2" cx="370.05" cy="455" r="172.41"/></g><polygon class="cls-13" points="351.86 572.2 301.89 572.2 301.89 394.58 296.03 389.39 326.87 325.46 357.71 389.39 351.86 394.58 351.86 572.2"/><rect class="cls-12" x="351.55" y="479.67" width="92.53" height="92.53"/><rect class="cls-12" x="361.62" y="472.13" width="72.38" height="25.5" rx="11.88" ry="11.88"/><rect class="cls-12" x="375.71" y="467.61" width="44.2" height="44.2"/><circle class="cls-12" cx="397.81" cy="467.25" r="13.34"/><rect class="cls-12" x="374.21" y="464.78" width="47.2" height="3.9"/><rect class="cls-2" x="370.05" y="541.36" width="18.51" height="37.01" rx="4" ry="4"/><rect class="cls-2" x="317.62" y="541.36" width="18.51" height="37.01" rx="4" ry="4"/><rect class="cls-2" x="407.06" y="541.36" width="18.51" height="37.01" rx="4" ry="4"/><rect class="cls-2" x="370.05" y="498.97" width="18.51" height="18.51" rx="4" ry="4"/><rect class="cls-2" x="317.62" y="498.97" width="18.51" height="18.51" rx="4" ry="4"/><rect class="cls-2" x="317.62" y="461.96" width="18.51" height="18.51" rx="4" ry="4"/><rect class="cls-2" x="317.62" y="424.95" width="18.51" height="18.51" rx="4" ry="4"/><rect class="cls-2" x="407.06" y="498.97" width="18.51" height="18.51" rx="4" ry="4"/></svg>