<svg id="Layer_1" data-name="Layer 1" xmlns="http://www.w3.org/2000/svg" xmlns:xlink="http://www.w3.org/1999/xlink" viewBox="0 0 1600 900"><defs><style>.cls-1,.cls-49{fill:none;}.cls-2{fill:#fff;}.cls-3{font-size:110.24px;letter-spacing:-0.01em;}.cls-3,.cls-50{fill:#d7141a;}.cls-3,.cls-52{font-family:TitilliumWeb-Bold, Titillium Web;font-weight:700;}.cls-4{letter-spacing:0em;}.cls-5{letter-spacing:-0.01em;}.cls-6{letter-spacing:-0.01em;}.cls-7{letter-spacing:-0.01em;}.cls-8{letter-spacing:-0.01em;}.cls-9{letter-spacing:-0.01em;}.cls-10{letter-spacing:-0.01em;}.cls-11{letter-spacing:0.01em;}.cls-12{font-size:68.9px;letter-spacing:0em;}.cls-12,.cls-28,.cls-51,.cls-52{fill:#11457e;}.cls-13{letter-spacing:0.01em;}.cls-14{letter-spacing:0.01em;}.cls-15{letter-spacing:-0.02em;}.cls-16{letter-spacing:-0.01em;}.cls-17{letter-spacing:-0.01em;}.cls-18{letter-spacing:0.01em;}.cls-19{letter-spacing:-0.01em;}.cls-20{letter-spacing:0em;}.cls-21{letter-spacing:0em;}.cls-22{letter-spacing:-0.01em;}.cls-23{letter-spacing:-0.02em;}.cls-24{letter-spacing:-0.01em;}.cls-25{letter-spacing:-0.01em;}.cls-26{letter-spacing:-0.01em;}.cls-27{letter-spacing:-0.02em;}.cls-28{font-size:55.12px;letter-spacing:0em;}.cls-29{letter-spacing:-0.01em;}.cls-30{letter-spacing:0.01em;}.cls-31{letter-spacing:0em;}.cls-32{letter-spacing:-0.01em;}.cls-33{letter-spacing:0em;}.cls-34{letter-spacing:-0.01em;}.cls-35{letter-spacing:-0.01em;}.cls-36{letter-spacing:0em;}.cls-37{letter-spacing:-0.01em;}.cls-38{letter-spacing:-0.02em;}.cls-39{letter-spacing:-0.01em;}.cls-40{letter-spacing:0em;}.cls-41{letter-spacing:-0.01em;}.cls-42{letter-spacing:-0.01em;}.cls-43{letter-spacing:-0.01em;}.cls-44{letter-spacing:-0.01em;}.cls-45{letter-spacing:-0.01em;}.cls-46{letter-spacing:-0.01em;}.cls-47{letter-spacing:-0.03em;}.cls-48{clip-path:url(#clip-path);}.cls-49{stroke:#000;stroke-miterlimit:10;}.cls-52{font-size:150px;letter-spacing:-0.01em;}.cls-53{letter-spacing:0em;}.cls-54{letter-spacing:0em;}</style><clipPath id="clip-path"><circle class="cls-1" cx="370.05" cy="455" r="185.05"/></clipPath></defs><title>milnik 500</title><rect class="cls-2" y="-25" width="1637" height="978"/><text class="cls-3" transform="translate(621.94 409.64)">D<tspan class="cls-4" x="69.59" y="0">ě</tspan><tspan class="cls-5" x="125.5" y="0">k</tspan><tspan class="cls-6" x="181.28" y="0">u</tspan><tspan class="cls-7" x="240.75" y="0">j</tspan><tspan class="cls-8" x="268.31" y="0">e</tspan><tspan class="cls-9" x="323.82" y="0">m</tspan><tspan class="cls-10" x="415.46" y="0">e</tspan><tspan class="cls-11" x="470.44" y="0">!</tspan><tspan class="cls-12"><tspan x="0" y="91.87">5</tspan><tspan class="cls-13" x="38.49" y="91.87">0</tspan><tspan class="cls-14" x="78.03" y="91.87">0 </tspan><tspan class="cls-15" x="133.15" y="91.87">l</tspan><tspan class="cls-16" x="150.6" y="91.87">i</tspan><tspan class="cls-17" x="167.92" y="91.87">d</tspan><tspan class="cls-18" x="204.96" y="91.87">í </tspan><tspan class="cls-19" x="239.27" y="91.87">j</tspan><tspan class="cls-20" x="256.22" y="91.87">i</tspan><tspan class="cls-14" x="273.83" y="91.87">ž </tspan><tspan class="cls-21" x="321.64" y="91.87">t</tspan><tspan class="cls-19" x="346.67" y="91.87">i</tspan><tspan class="cls-22" x="363.55" y="91.87">p</tspan><tspan class="cls-23" x="400.68" y="91.87">o</tspan><tspan class="cls-24" x="436.25" y="91.87">v</tspan><tspan class="cls-25" x="469.99" y="91.87">a</tspan><tspan class="cls-26" x="504.28" y="91.87">l</tspan><tspan class="cls-27" x="522.14" y="91.87">o</tspan><tspan class="cls-14" x="557.57" y="91.87">,</tspan></tspan><tspan class="cls-28"><tspan x="0" y="156.18">j</tspan><tspan class="cls-29" x="14.11" y="156.18">a</tspan><tspan class="cls-30" x="41.96" y="156.18">k </tspan><tspan class="cls-31" x="83.58" y="156.18">d</tspan><tspan class="cls-32" x="113.63" y="156.18">o</tspan><tspan class="cls-33" x="142.66" y="156.18">p</tspan><tspan class="cls-34" x="172.58" y="156.18">a</tspan><tspan class="cls-35" x="200.37" y="156.18">d</tspan><tspan class="cls-36" x="230.15" y="156.18">n</tspan><tspan class="cls-37" x="260.4" y="156.18">o</tspan><tspan class="cls-30" x="289.41" y="156.18">u </tspan><tspan class="cls-38" x="333.12" y="156.18">k</tspan><tspan class="cls-32" x="360.61" y="156.18">o</tspan><tspan class="cls-39" x="389.64" y="156.18">mu</tspan><tspan class="cls-40" x="465.41" y="156.18">n</tspan><tspan class="cls-41" x="495.68" y="156.18">á</tspan><tspan class="cls-42" x="523.32" y="156.18">l</tspan><tspan class="cls-35" x="537.5" y="156.18">n</tspan><tspan class="cls-30" x="567.5" y="156.18">í </tspan><tspan class="cls-43" x="594.95" y="156.18">v</tspan><tspan class="cls-44" x="621.73" y="156.18">o</tspan><tspan class="cls-45" x="650.64" y="156.18">l</tspan><tspan class="cls-46" x="664.83" y="156.18">b</tspan><tspan class="cls-47" x="694.1" y="156.18">y</tspan><tspan class="cls-30" x="720.04" y="156.18">.</tspan></tspan></text><g class="cls-48"><line class="cls-49" x1="337.34" y1="703.48" x2="402.77" y2="206.52"/><line class="cls-49" x1="402.77" y1="703.48" x2="337.34" y2="206.52"/><polygon class="cls-50" points="337.34 206.52 370.05 455 402.76 206.52 337.34 206.52"/><polygon class="cls-2" points="274.14 223.45 370.05 455 337.34 206.52 274.14 223.45"/><polygon class="cls-51" points="217.48 256.16 370.05 455 274.14 223.45 217.48 256.16"/><polygon class="cls-50" points="171.22 302.43 370.05 455 217.48 256.16 171.22 302.43"/><polygon class="cls-2" points="138.5 359.09 370.05 455 171.22 302.43 138.5 359.09"/><polygon class="cls-51" points="121.57 422.29 370.05 455 138.5 359.09 121.57 422.29"/><polygon class="cls-50" points="121.57 487.71 370.05 455 121.57 422.29 121.57 487.71"/><polygon class="cls-2" points="138.5 550.91 370.05 455 121.57 487.71 138.5 550.91"/><polygon class="cls-51" points="171.22 607.57 370.05 455 138.5 550.91 171.22 607.57"/><polygon class="cls-50" points="217.48 653.84 370.05 455 171.22 607.57 217.48 653.84"/><polygon class="cls-2" points="274.14 686.55 370.05 455 217.48 653.84 274.14 686.55"/><polygon class="cls-51" points="337.34 703.48 370.05 455 274.14 686.55 337.34 703.48"/><polygon class="cls-50" points="402.76 703.48 370.05 455 337.34 703.48 402.76 703.48"/><polygon class="cls-2" points="465.96 686.55 370.05 455 402.76 703.48 465.96 686.55"/><polygon class="cls-51" points="522.63 653.84 370.05 455 465.96 686.55 522.63 653.84"/><polygon class="cls-50" points="568.89 607.57 370.05 455 522.63 653.84 568.89 607.57"/><polygon class="cls-2" points="601.6 550.91 370.05 455 568.89 607.57 601.6 550.91"/><polygon class="cls-51" points="618.54 487.71 370.05 455 601.6 550.91 618.54 487.71"/><polygon class="cls-50" points="618.54 422.29 370.05 455 618.54 487.71 618.54 422.29"/><polygon class="cls-2" points="601.6 359.09 370.05 455 618.54 422.29 601.6 359.09"/><polygon class="cls-51" points="568.89 302.43 370.05 455 601.6 359.09 568.89 302.43"/><polygon class="cls-50" points="522.63 256.16 370.05 455 568.89 302.43 522.63 256.16"/><polygon class="cls-2" points="465.96 223.45 370.05 455 522.63 256.16 465.96 223.45"/><polygon class="cls-51" points="402.76 206.52 370.05 455 465.96 223.45 402.76 206.52"/><circle class="cls-2" cx="370.05" cy="455" r="172.41"/></g><text class="cls-52" transform="translate(248 501.22)">5<tspan class="cls-53" x="82.15" y="0">0</tspan><tspan class="cls-54" x="166.6" y="0">0</tspan></text></svg>