<svg xmlns="http://www.w3.org/2000/svg" viewBox="0 0 300 300"><defs><style>.cls-1{fill:#d7141a;}.cls-2{fill:#11457e;}</style></defs><title>icon-guess</title><g id="Layer_3" data-name="Layer 3"><path class="cls-1" d="M118.17,140.22c-3.89,3.89-7.08,11.57-7.08,17.07V320a9.67,9.67,0,0,0,10,9.7l10.27-.3a10.41,10.41,0,0,0,10-10.3V127c0-5.5-3.18-6.82-7.07-2.93Z"/><path class="cls-1" d="M69,234.93c-3.89,3.89-7.07,11.57-7.07,17.07v68a9.66,9.66,0,0,0,10,9.7l10.28-.3a10.4,10.4,0,0,0,10-10.3V221.74c0-5.5-3.18-6.82-7.07-2.93Z"/><path class="cls-1" d="M216.58,187.57c-3.89,3.89-7.07,11.58-7.07,17.08V320a9.67,9.67,0,0,0,10,9.7l10.27-.3a10.4,10.4,0,0,0,10-10.3V174.38c0-5.5-3.18-6.82-7.07-2.93Z"/><path class="cls-2" d="M167.37,55c-3.89,3.89-7.07,11.57-7.07,17.07V320a9.67,9.67,0,0,0,10,9.7l10.27-.3a10.41,10.41,0,0,0,10-10.3V41.78c0-5.5-3.19-6.82-7.07-2.93Z"/></g></svg>