<svg xmlns="http://www.w3.org/2000/svg" xmlns:xlink="http://www.w3.org/1999/xlink" viewBox="0 0 500 500"><defs><style>.a{fill:none;}.b{fill:#11457e;}.c{clip-path:url(#a);}.d{fill:#fff;}</style><clipPath id="a"><circle class="a" cx="250" cy="250" r="219"/></clipPath></defs><title>list</title><rect class="b" width="500" height="500"/><g class="c"><path class="d" d="M231.15,957.2c-80.82,0-146.62-65.58-147-146.32L46.48,359.63V359c0-39.1,15.4-71.77,44.54-94.49,26-20.24,62.34-31.39,102.42-31.39H306.56c40.08,0,76.46,11.15,102.42,31.39,29.14,22.72,44.54,55.39,44.54,94.49v.63L415.81,810.88c-.34,80.74-66.14,146.32-147,146.32Z"/><path class="b" d="M306.56,248.12c72.58,0,132,38.3,132,110.88l-37.7,451.23c0,72.58-59.38,132-132,132h-37.7c-72.58,0-132-59.38-132-132L61.48,359c0-72.58,59.38-110.88,132-110.88H306.56m0-30H193.44a208.55,208.55,0,0,0-59.85,8.38c-19.63,5.88-37.05,14.69-51.8,26.18a128,128,0,0,0-36.89,45.27C36,316.29,31.48,336.83,31.48,359v1.25l.1,1.25,37.61,450A160.12,160.12,0,0,0,82,873.2a163.25,163.25,0,0,0,86.19,86.19,160.16,160.16,0,0,0,63,12.8h37.7a160.16,160.16,0,0,0,63-12.8A163.25,163.25,0,0,0,418,873.2a160.12,160.12,0,0,0,12.8-61.66l37.61-450,.1-1.25V359c0-22.17-4.52-42.71-13.43-61.05a128,128,0,0,0-36.89-45.27c-14.75-11.5-32.17-20.3-51.8-26.18a208.55,208.55,0,0,0-59.85-8.38Z"/><path class="d" d="M250,278.49c-23.61,0-46.37-12.45-64.09-35.07-15.91-20.31-25.41-46.6-25.41-70.33a89.5,89.5,0,1,1,179,0C339.5,221.83,300.4,278.49,250,278.49Z"/><path class="b" d="M250,93.59a79.5,79.5,0,0,1,79.5,79.5c0,43.91-35.59,95.4-79.5,95.4s-79.5-51.49-79.5-95.4A79.5,79.5,0,0,1,250,93.59m0-20a99.61,99.61,0,0,0-99.5,99.5c0,26.28,10,54.16,27.54,76.5a109.11,109.11,0,0,0,31,27.47,79.17,79.17,0,0,0,82,0,109.11,109.11,0,0,0,31-27.47c17.5-22.34,27.54-50.22,27.54-76.5A99.61,99.61,0,0,0,250,73.59Z"/></g><path class="b" d="M122.37,438c-4.6,27.11,1.23,49.29,13,49.29s19.05-22.38,16.26-49.74l-5.86-57.52c-2.79-27.36-8.84-27.56-13.44-.45Z"/><path class="b" d="M377.63,438c4.6,27.11-1.23,49.29-13,49.29s-19.05-22.38-16.26-49.74l5.86-57.52c2.79-27.36,8.84-27.56,13.44-.45Z"/></svg>