<svg xmlns="http://www.w3.org/2000/svg" xmlns:xlink="http://www.w3.org/1999/xlink" viewBox="0 0 300 300"><defs><style>.cls-1,.cls-3{fill:none;}.cls-2{clip-path:url(#clip-path);}.cls-3{stroke:#000;stroke-miterlimit:10;}.cls-4,.cls-7{fill:#d7141a;}.cls-5{fill:#fff;}.cls-11,.cls-6{fill:#11457e;}.cls-7{font-size:72px;}.cls-11,.cls-7{font-family:TitilliumWeb-Bold, Titillium Web;font-weight:700;}.cls-8{letter-spacing:-0.01em;}.cls-9{letter-spacing:0em;}.cls-10{letter-spacing:-0.01em;}.cls-11{font-size:36px;}.cls-12{letter-spacing:0.02em;}</style><clipPath id="clip-path"><circle class="cls-1" cx="150" cy="150" r="150"/></clipPath></defs><title>logo-volby</title><g id="Layer_3" data-name="Layer 3"><g class="cls-2"><line class="cls-3" x1="123.48" y1="351.42" x2="176.52" y2="-51.42"/><line class="cls-3" x1="176.52" y1="351.42" x2="123.48" y2="-51.42"/><polygon class="cls-4" points="123.48 -51.42 150 150 176.52 -51.42 123.48 -51.42"/><polygon class="cls-5" points="72.26 -37.69 150 150 123.48 -51.42 72.26 -37.69"/><polygon class="cls-6" points="26.33 -11.17 150 150 72.26 -37.69 26.33 -11.17"/><polygon class="cls-4" points="-11.17 26.33 150 150 26.33 -11.17 -11.17 26.33"/><polygon class="cls-5" points="-37.69 72.26 150 150 -11.17 26.33 -37.69 72.26"/><polygon class="cls-6" points="-51.42 123.48 150 150 -37.69 72.26 -51.42 123.48"/><polygon class="cls-4" points="-51.42 176.52 150 150 -51.42 123.48 -51.42 176.52"/><polygon class="cls-5" points="-37.69 227.74 150 150 -51.42 176.52 -37.69 227.74"/><polygon class="cls-6" points="-11.17 273.67 150 150 -37.69 227.74 -11.17 273.67"/><polygon class="cls-4" points="26.33 311.17 150 150 -11.17 273.67 26.33 311.17"/><polygon class="cls-5" points="72.26 337.69 150 150 26.33 311.17 72.26 337.69"/><polygon class="cls-6" points="123.48 351.42 150 150 72.26 337.69 123.48 351.42"/><polygon class="cls-4" points="176.52 351.42 150 150 123.48 351.42 176.52 351.42"/><polygon class="cls-5" points="227.74 337.69 150 150 176.52 351.42 227.74 337.69"/><polygon class="cls-6" points="273.67 311.17 150 150 227.74 337.69 273.67 311.17"/><polygon class="cls-4" points="311.17 273.67 150 150 273.67 311.17 311.17 273.67"/><polygon class="cls-5" points="337.69 227.74 150 150 311.17 273.67 337.69 227.74"/><polygon class="cls-6" points="351.42 176.52 150 150 337.69 227.74 351.42 176.52"/><polygon class="cls-4" points="351.42 123.48 150 150 351.42 176.52 351.42 123.48"/><polygon class="cls-5" points="337.69 72.26 150 150 351.42 123.48 337.69 72.26"/><polygon class="cls-6" points="311.17 26.33 150 150 337.69 72.26 311.17 26.33"/><polygon class="cls-4" points="273.67 -11.17 150 150 311.17 26.33 273.67 -11.17"/><polygon class="cls-5" points="227.74 -37.69 150 150 273.67 -11.17 227.74 -37.69"/><polygon class="cls-6" points="176.52 -51.42 150 150 227.74 -37.69 176.52 -51.42"/><circle class="cls-5" cx="150" cy="150" r="127.72"/></g><text class="cls-7" transform="translate(66.16 154.04)"><tspan class="cls-8">v</tspan><tspan class="cls-9" x="35.35" y="0">ol</tspan><tspan class="cls-10" x="93.09" y="0">b</tspan><tspan x="131.69" y="0">y</tspan></text><text class="cls-11" transform="translate(63.96 196.38)">5. a 6. ř<tspan class="cls-12" x="114.3" y="0">í</tspan><tspan x="124.45" y="0">jna</tspan></text></g></svg>