<svg xmlns="http://www.w3.org/2000/svg" viewBox="0 0 800 400"><defs><style>.a{fill:#11457e;}.b{fill:#fff;}</style></defs><title>who-horizontal</title><rect class="a" x="89.49" y="47.1" width="620.8" height="305.8" rx="30" ry="30"/><rect class="a" x="611.55" y="131.25" width="137.5" height="137.5" rx="4" ry="4" transform="translate(340.68 -422.46) rotate(45)"/><path class="b" d="M172.63,125.18V114.34H217v10.84h-16v49.58H188.8V125.18Z"/><path class="b" d="M223.71,124.65V112.56h11.91v12.08Zm0,50.11V130.33h11.91v44.42Z"/><path class="b" d="M246.63,193.41V130.33h11.82v2.4q5.77-3.47,10.13-3.46,9,0,13.24,5.38t4.26,18.26q0,12.88-4.71,17.9t-15.46,5a40.57,40.57,0,0,1-6.31-.53l-1.07-.18v18.3Zm19.63-53.48a18,18,0,0,0-6.66,1.33l-1.07.44V165a51.41,51.41,0,0,0,6.49.53q5.15,0,7.06-3T274,152.19Q274,139.93,266.27,139.93Z"/><path class="b" d="M306.87,174.75H295V130.33h11.82v2.49q6-3.55,11.11-3.55,8.88,0,12.26,5.24t3.38,16.17v24.08H321.62V151q0-5.69-1.33-8.4T315,139.93a20.14,20.14,0,0,0-7,1.24l-1.07.36Z"/><path class="b" d="M356,163.52a8.85,8.85,0,0,0,6,1.82q8.26,0,14.75-.53l2.49-.27.18,8.79A78.86,78.86,0,0,1,361,175.82q-10,0-14.57-5.33t-4.53-17.32q0-23.9,19.63-23.9,19.37,0,19.37,20.08l-.89,8.26H353.87Q354,161.7,356,163.52Zm1.29-40.29-11.19-13.42h10.93l4.09,6,4.09-6h10.93l-11.37,13.42Zm11.82,25.32q0-5.33-1.69-7.42T361.55,139q-4.22,0-6,2.18t-1.82,7.33Z"/><path class="b" d="M414,140.46H403.09v18.21a36.38,36.38,0,0,0,.13,3.78,3.06,3.06,0,0,0,1,1.91,3.7,3.7,0,0,0,2.62.8l6.75-.18.53,9.51a45.23,45.23,0,0,1-9.06,1.33q-8,0-10.93-3.6t-2.93-13.28V140.46h-5.24V130.33h5.24V118h11.91v12.35H414Z"/><path class="b" d="M433.69,163.52a8.85,8.85,0,0,0,6,1.82q8.26,0,14.75-.53l2.49-.27.18,8.79a78.86,78.86,0,0,1-18.48,2.49q-10,0-14.57-5.33t-4.53-17.32q0-23.9,19.63-23.9,19.37,0,19.37,20.08l-.89,8.26H431.52Q431.6,161.7,433.69,163.52Zm13.1-15q0-5.33-1.69-7.42T439.2,139q-4.22,0-6,2.18t-1.82,7.33Z"/><path class="b" d="M518.49,141.44A141.61,141.61,0,0,0,503.08,140q-4.4,0-5.69.8a2.76,2.76,0,0,0-1.29,2.53,2.41,2.41,0,0,0,1.73,2.4,67.5,67.5,0,0,0,8.88,2q7.15,1.29,10.17,4.22t3,9.51q0,14.39-17.86,14.39a77.51,77.51,0,0,1-14.22-1.6l-2.84-.53.36-10a141.41,141.41,0,0,0,15.33,1.42q4.31,0,5.86-.84a2.72,2.72,0,0,0,1.55-2.53,2.62,2.62,0,0,0-1.64-2.49q-1.65-.8-8.53-2t-10.26-3.91q-3.38-2.75-3.38-9.82t4.8-10.66q4.8-3.6,12.35-3.6a83.09,83.09,0,0,1,14.3,1.69l2.93.53Z"/><path class="b" d="M528.53,124.65V112.56h11.91v12.08Zm0,50.11V130.33h11.91v44.42Z"/><path class="b" d="M547.72,185.68l4.44-23.1h13.15l-8,23.1Z"/><path class="b" d="M175.11,247.61V236.95h33v10.66l-18.66,23.1h18.66v10.66h-33V270.71l18.66-23.1Z"/><path class="b" d="M255.07,219.18v62.19H243.26V279.5q-6.22,2.93-10.75,2.93-9.68,0-13.5-5.6t-3.82-17.72q0-12.13,4.58-17.68t13.82-5.55a49,49,0,0,1,7.91.89l1.69.35V219.18Zm-13.15,51.53,1.24-.27V247.08a49.32,49.32,0,0,0-8.71-.89q-7.2,0-7.2,12.79,0,6.93,1.6,9.86a5.55,5.55,0,0,0,5.29,2.93A30.81,30.81,0,0,0,241.92,270.71Z"/><path class="b" d="M300.12,250.81v18.48a7.07,7.07,0,0,0,.71,3,3.3,3.3,0,0,0,2.22,1.2l-.36,9a33.75,33.75,0,0,1-7.24-.62,16.29,16.29,0,0,1-5.46-2.49,29.58,29.58,0,0,1-13.06,3.11q-13.77,0-13.77-14.57,0-7.11,3.82-10.08t11.73-3.51l9.51-.71v-2.75q0-2.75-1.24-3.78a6.3,6.3,0,0,0-4-1l-16.7.71-.36-8.26A69.18,69.18,0,0,1,284,235.88q8.57,0,12.35,3.55T300.12,250.81Zm-20,11.73q-5,.45-5,5.33t4.35,4.89a28.77,28.77,0,0,0,7.37-1.07l1.33-.35v-9.51Z"/><path class="b" d="M326.86,236.95H339.3l7.11,34.29h2.49l7.46-34.29h12.08l-10.66,44.42H337.52Z"/><path class="b" d="M371.19,236.95h11.73L391,271.24h2l8.08-34.29h11.73L397.22,300H385.58l4.89-18.66h-8.35Z"/><path class="b" d="M431.6,281.37H419.7V219.18H431.6v19.9q6.13-3.2,11-3.2,8.88,0,12.26,5.24t3.38,16.17v24.08H446.35V257.56q0-5.6-1.33-8.31t-5.33-2.71a23.45,23.45,0,0,0-6.93,1.07l-1.16.36Z"/><path class="b" d="M468.83,281.37V236.95h11.82v4.71a45.22,45.22,0,0,1,14.22-5.77v12q-7.2,1.51-12.35,3.11l-1.78.62v29.76Z"/><path class="b" d="M535.91,250.81v18.48a7.07,7.07,0,0,0,.71,3,3.3,3.3,0,0,0,2.22,1.2l-.36,9a33.75,33.75,0,0,1-7.24-.62,16.29,16.29,0,0,1-5.46-2.49,29.58,29.58,0,0,1-13.06,3.11q-13.77,0-13.77-14.57,0-7.11,3.82-10.08t11.73-3.51l9.51-.71v-2.75q0-2.75-1.24-3.78a6.3,6.3,0,0,0-4-1l-16.7.71-.36-8.26a69.18,69.18,0,0,1,18.08-2.58q8.57,0,12.35,3.55T535.91,250.81Zm-20,11.73q-5,.45-5,5.33t4.35,4.89a28.77,28.77,0,0,0,7.37-1.07l1.33-.35v-9.51Z"/><path class="b" d="M547.37,279.24V236.95h11.91v42.38q0,9.06-3.15,13.37t-12.66,9.11l-4.71-8.8a46.38,46.38,0,0,0,5.6-4.18,8.78,8.78,0,0,0,2.31-3.6A19.55,19.55,0,0,0,547.37,279.24Zm0-48V219.18h11.91v12.08Z"/><path class="b" d="M582.24,270.13a8.85,8.85,0,0,0,6,1.82q8.26,0,14.75-.53l2.49-.27.18,8.79a78.86,78.86,0,0,1-18.48,2.49q-10,0-14.57-5.33t-4.53-17.32q0-23.9,19.63-23.9,19.37,0,19.37,20.08l-.89,8.26H580.06Q580.15,268.31,582.24,270.13Zm13.1-15q0-5.33-1.69-7.42t-5.91-2.09q-4.22,0-6,2.18T580,255.16Z"/></svg>